<?xml version="1.0" encoding="UTF-8" standalone="no"?><svg fill="none" viewBox="0 0 198 36" height="36" width="198" xmlns="http://www.w3.org/2000/svg" xmlns:xlink="http://www.w3.org/1999/xlink">
<g clip-path="url(#clip0_9075_41995)">
<path fill="#1C1C1C" d="M53.824 33.2729C53.9042 33.2463 53.9844 33.2198 54.0646 33.1932C54.0646 33.1932 54.1983 33.14 54.2518 33.14C55.0538 32.874 56.8449 31.9431 57.5133 30.6132C58.8767 30.1079 59.8658 29.4164 60.4807 28.5919C61.657 28.3791 62.5659 27.8737 63.0739 27.6078C64.2501 26.9428 65.0789 26.3045 65.5868 25.613C66.0146 25.0545 66.2819 24.6289 66.4958 24.1767C66.8968 23.964 67.3512 23.698 67.9394 23.299C69.9979 21.9426 70.4256 19.4425 70.4791 19.1499C70.4791 19.0967 70.5058 19.0169 70.5058 18.9637C70.6128 18.9637 70.7197 18.9637 70.8266 18.9637C72.8851 18.9637 75.5852 17.6871 77.0288 16.9689H77.0556C77.2694 16.8626 77.4833 16.7562 77.5635 16.7296C78.0447 16.5168 79.0338 15.9848 80.0497 15.3199C81.3597 14.4422 82.2419 13.6443 82.7231 12.8996C82.8033 12.7932 82.8568 12.6602 82.9102 12.5272L83.7657 11.9953C84.0063 11.8357 84.2202 11.6229 84.3538 11.357C84.5944 11.224 84.7816 11.1176 84.835 11.0644C85.5034 10.6388 85.7975 9.89412 85.5569 9.17599V9.1494C85.343 8.51107 84.7548 7.73975 83.7657 7.50038C83.4182 6.75566 82.6696 6.33011 81.8409 6.33011C81.6537 6.33011 81.4933 6.3567 81.3864 6.3833C81.3329 6.3833 81.1191 6.43649 79.5151 6.83545L77.1358 7.39399C77.3496 6.80885 77.3229 6.17052 77.0556 5.63858C76.7347 4.97365 76.0664 4.5481 75.3713 4.5481C75.1307 4.5481 74.8901 4.6013 74.6763 4.70768H74.6495C74.5693 4.76088 74.3822 4.84067 70.1315 7.58017C70.0781 7.60677 70.0246 7.65996 69.9711 7.68656C67.9127 9.46856 67.1641 10.5324 66.977 10.7984C66.87 10.9314 66.7096 11.1974 66.5492 11.5431C66.4423 11.4899 66.3354 11.4367 66.2284 11.3836C65.373 11.0112 64.4908 10.825 63.5818 10.825C61.9511 10.825 60.8015 11.4633 60.5074 11.6495C60.347 11.7293 59.7322 12.1017 58.8232 12.8198C58.449 13.1124 58.1281 13.4315 57.8341 13.8039C57.2192 13.9369 56.7113 14.1231 56.337 14.3092C55.8558 14.5486 55.4013 14.921 54.8934 15.3199L54.8666 15.3465C54.7864 15.4263 54.7062 15.4795 54.5993 15.5593C54.3854 15.7189 53.824 16.171 53.2894 16.9157H53.2359C53.1557 16.9423 52.4874 17.0753 51.6319 17.4743C51.418 17.5807 51.2041 17.6871 51.017 17.82C50.5358 17.8466 49.7873 17.9264 48.7981 18.219H48.7446C48.6644 18.1924 47.9159 18.0594 47.007 18.0594C46.6059 18.0594 46.2317 18.086 45.9109 18.1392C45.697 18.1658 44.9217 18.2988 44.2801 18.485C43.9593 18.5648 43.184 18.8307 42.2751 19.4159C40.3235 18.9637 38.372 18.8307 37.1422 18.7775C38.3185 17.2083 38.8799 15.3997 38.6928 13.8571C38.3185 10.9314 36.3402 9.20259 35.6184 8.69725C34.3887 3.59061 30.8064 1.40965 27.8657 1.09048C27.2775 0.425554 26.1815 0 24.925 0C24.417 0 23.9358 0.0531944 23.4546 0.18618C21.8773 0.611733 20.6209 1.8086 20.3803 3.11186C18.803 4.41512 16.3435 7.34079 17.0386 12.5804C16.4504 13.3783 15.3009 15.3997 16.0761 18.485C16.6108 20.5861 17.9208 22.1022 19.899 22.9001C18.3752 23.6448 17.0385 24.5225 15.9157 25.5598C15.8355 25.613 15.7821 25.6928 15.7286 25.746C13.082 25.879 10.6759 26.9694 8.77786 28.911C7.41444 30.2941 6.47876 31.8899 5.89062 33.2995H53.824V33.2729Z"></path>
<path fill="white" d="M53.5957 31.3988C53.0451 31.5825 52.1012 31.9499 50.7902 31.9499C50.7378 31.9499 50.7116 31.9499 50.6591 31.9499C49.2957 31.9236 47.6701 31.2151 46.5165 29.9293C45.3366 28.6434 44.7073 26.7016 44.8908 24.7859C45.0744 22.8703 46.228 21.2696 47.6177 20.4036C47.9323 20.1937 48.2732 20.0362 48.614 19.9313C48.7451 19.8788 48.9024 19.8263 49.0335 19.8C49.0073 19.8263 48.9811 19.8788 48.9549 19.905C47.539 22.0043 47.6439 24.7072 48.3256 26.308C48.6927 27.1477 49.1122 27.83 49.6104 28.4335C50.2658 29.2208 51.0524 29.8243 51.9439 30.2179C52.7829 30.5853 53.6482 30.769 54.5396 30.769C54.6445 30.769 54.7232 30.769 54.828 30.769C54.3823 31.0577 53.9366 31.2938 53.5957 31.3988Z"></path>
<path fill="white" d="M56.728 29.3481C56.1972 29.5371 55.5337 29.6991 54.7906 29.6991C54.1536 29.6991 53.437 29.5641 52.7205 29.2402C51.1546 28.5382 50.3054 27.1612 49.7746 25.9462C49.2438 24.7042 49.1376 22.4902 50.2788 20.7353C50.9158 19.7903 51.8181 19.2233 52.5347 18.8993C52.0835 20.2763 51.8712 22.4092 53.3574 24.9742V25.0012V25.0282C54.1005 26.2432 55.0825 27.1612 56.2503 27.7822C56.9403 28.1602 57.6834 28.4032 58.4531 28.5382C57.9223 28.8622 57.2853 29.1322 56.728 29.3481Z"></path>
<path fill="white" d="M62.3469 26.1215C61.6996 26.4672 60.8096 26.9459 59.6768 26.9991C59.6229 26.9991 59.5689 26.9991 59.515 26.9991C57.8158 26.9991 55.7661 26.2013 54.4445 24.1002C52.0711 20.1641 54.6603 17.4514 55.5234 16.7865C56.0358 16.3876 56.5482 15.9886 56.9528 15.7493C56.764 16.2812 56.6831 16.6801 56.6831 16.8131C56.4943 17.7971 56.6561 19.0737 57.1146 20.2173C57.708 21.7332 58.7328 22.9566 60.0814 23.7279C61.1872 24.3662 62.3199 24.6853 63.4796 24.6853C63.8033 24.6853 64.1 24.6587 64.3427 24.6321C63.7763 25.2704 62.9133 25.8289 62.3469 26.1215Z"></path>
<path fill="white" d="M11.8654 33.2999C11.9657 32.4103 12.1914 31.3319 12.6427 30.1727C13.0188 29.2022 13.4701 28.2857 14.0468 27.45C12.4421 27.8004 11.0129 28.6631 9.80933 29.984C8.98189 30.8736 8.27983 32.0059 7.70312 33.2729H11.8654V33.2999Z"></path>
<path fill="white" d="M41.2341 33.2727C40.9412 33.0046 40.7016 32.7634 40.4885 32.5489C39.4766 31.5034 38.6778 29.6536 38.4381 28.3668C38.012 26.2757 38.305 24.2383 39.2902 22.3349C39.6098 21.7451 39.9826 21.1821 40.4353 20.6996C38.2251 20.2975 36.1214 20.2707 35.429 20.2707C35.3492 20.4315 35.2426 20.5655 35.1095 20.6996C34.3106 21.3966 33.6449 21.5575 34.1242 21.0481C34.5769 20.5119 34.5503 19.949 34.4171 19.8149C34.3106 19.7077 34.1242 19.7881 34.0177 19.8149C32.7129 20.2975 32.4732 20.083 32.7395 19.9221C33.9112 19.1983 34.5769 18.5549 34.9763 18.1528C35.9616 17.0268 36.7605 15.3915 36.5741 13.8903C36.3611 12.1477 35.3758 10.7805 34.3639 9.94942C34.2574 9.86899 34.1775 9.78857 34.1242 9.76176C34.0976 9.73495 34.071 9.70814 34.0443 9.70814C33.8846 9.60091 33.6715 9.46687 33.5118 9.41325C33.2455 9.33283 33.3254 9.14517 33.6183 9.06474C33.5916 8.9307 33.565 8.76985 33.5118 8.63581C33.4851 8.50176 33.4319 8.36772 33.4052 8.23368C32.2336 4.31965 29.4642 2.65753 27.1741 2.41626C27.1474 2.41626 27.1208 2.41626 27.0942 2.41626C26.5616 2.36264 26.1888 2.36264 26.1089 2.36264C25.7361 2.30902 25.8959 2.14817 26.1089 2.06775C26.1888 2.04094 26.2154 1.96051 26.1888 1.9069C25.9225 1.50477 24.6976 1.12945 23.4194 1.50477C22.7537 1.69243 22.1678 2.12136 21.8217 2.5503C21.7684 2.63072 21.7151 2.73796 21.6619 2.81838C21.6619 2.84519 21.6353 2.872 21.6353 2.89881C21.582 3.05966 21.7684 3.00604 21.7684 3.00604C22.3809 2.872 22.6472 3.03285 22.1678 3.30093C21.8749 3.46178 21.4489 3.75668 21.1559 3.97114C20.4636 4.50731 19.5582 5.39199 18.9191 6.73241C18.3333 7.9656 18.0403 9.41325 18.0936 10.9681C18.1202 11.1826 18.1202 11.6115 18.1469 11.7456C18.1735 11.9064 18.28 12.0673 18.6528 12.0137C19.1588 11.96 19.4783 11.8528 19.0256 12.2281C18.8392 12.3622 18.2534 12.9252 17.9072 13.3541C17.2149 14.2388 16.6823 15.8741 17.2149 17.9383C17.6675 19.7077 18.7593 20.8872 20.4902 21.4502C21.5287 21.7451 23.8987 22.1472 25.7361 22.04C25.9225 22.04 25.9758 22.0668 25.9491 22.1472C25.9225 22.2277 25.7894 22.2813 25.603 22.3081C25.31 22.3617 24.671 22.4689 23.5792 22.5762C23.3395 22.603 23.1531 22.7638 23.1265 22.8711C23.1265 22.8711 23.1265 22.8711 23.1265 22.8979C22.9933 23.3804 23.9786 23.7826 24.0851 23.8362C24.4579 23.9434 24.2981 24.1579 24.1384 24.1847C23.446 24.3187 22.1945 24.0238 21.5287 23.9702C21.076 23.9434 20.7299 24.0238 20.5967 24.1043C19.0256 24.8013 17.6942 25.686 16.6024 26.7047C15.3775 27.8574 14.4454 29.2247 13.833 30.7259C13.4602 31.6642 13.2471 32.5489 13.1406 33.2995H41.2341V33.2727Z"></path>
<path fill="white" d="M41.7398 31.6024C42.3328 32.2125 43.0067 32.849 44.0848 33.2999H48.9365C48.5861 33.1938 48.2087 33.0612 47.8583 32.902C46.9149 32.4777 46.0524 31.8411 45.3786 31.0985C44.6508 30.3029 44.0848 29.3215 43.7075 28.2076C43.3571 27.1202 43.2223 25.9267 43.3301 24.8127C43.4379 23.6723 43.8422 22.5584 44.4891 21.577C44.9204 20.8875 45.4864 20.304 46.1063 19.8C46.0524 19.8 45.9716 19.8266 45.9176 19.8266C45.9176 19.8266 45.0821 19.9327 44.4891 20.1183C43.8961 20.304 41.8476 21.0466 40.7695 23.1153C39.6644 25.1841 39.7992 26.9876 40.0418 28.1546C40.2843 29.3481 41.0121 30.8863 41.7398 31.6024Z"></path>
<path fill="white" d="M84.1787 9.80937C84.0448 9.88963 83.8573 9.99664 83.6967 10.1037V10.0769C83.4557 9.67561 83.1344 9.40808 82.7327 9.32783C82.1169 9.19406 81.3403 9.43484 80.3228 10.1037C78.8233 11.0668 76.4938 11.6286 76.467 11.6286C76.3063 11.6553 76.1992 11.8158 76.2528 11.9763C76.2795 12.1101 76.4134 12.2171 76.5473 12.2171C76.5741 12.2171 76.6009 12.2171 76.6276 12.2171C76.7347 12.1904 79.0911 11.6286 80.6709 10.612C81.5278 10.0501 82.1972 9.80937 82.6256 9.91638C82.8398 9.96989 83.0005 10.0769 83.1344 10.3177C83.3218 10.612 83.1612 10.7725 83.1344 10.7725C83.1076 10.7725 82.3846 11.254 82.0633 11.4413C81.9027 11.2808 81.5813 11.0132 81.0993 10.9597C80.5638 10.9062 80.0015 11.147 79.4392 11.6821C78.0736 12.9662 76.6009 13.3675 76.5741 13.3942C76.4134 13.4477 76.3331 13.6083 76.3599 13.7688C76.3867 13.9025 76.5205 13.9828 76.6544 13.9828C76.6812 13.9828 76.708 13.9828 76.7347 13.9828C76.7883 13.956 78.3681 13.528 79.8408 12.1369C80.2693 11.7356 80.6709 11.5483 81.019 11.5751C81.3671 11.6018 81.5813 11.8426 81.6349 11.8961C81.6617 11.9228 81.7152 12.0298 81.6349 12.1369C80.8048 13.4477 77.9129 15.1064 77.0828 15.4542C76.467 15.7217 74.0035 17.0326 71.9953 17.4606C71.7811 17.5141 71.5401 17.5409 71.3259 17.5677C71.2991 17.5677 71.2723 17.5677 71.2455 17.5677C70.951 17.5677 69.5854 17.5944 69.1837 17.1931C68.5946 16.6046 68.3804 17.0326 68.5679 17.7817C67.9252 18.183 66.9613 18.7448 66.7203 18.9053C66.0509 19.3066 65.194 18.8518 65.0333 18.8518C64.6852 18.8518 65.5153 19.8951 66.2115 20.0022C66.9613 20.1092 68.3536 19.2263 68.3536 19.2263L68.8892 18.8785C68.8892 18.8785 68.5679 20.9117 67.0684 21.9283C66.1312 22.5437 65.7295 22.7577 65.3814 22.9182C65.1404 23.0252 64.4443 23.3997 63.4 23.3997C62.6502 23.3997 61.7666 23.2125 60.7491 22.6239C58.3124 21.1793 57.8304 18.3435 58.0446 17.0861C58.0446 17.0861 58.3124 15.2134 59.7583 14.1166C60.7223 13.3675 61.2846 13.0465 61.2846 13.0465C61.2846 13.0465 62.195 12.4579 63.5338 12.4579C64.1229 12.4579 64.7923 12.5649 65.4885 12.8859C65.2743 13.0464 65.0869 13.207 64.9798 13.3407C64.712 13.7688 64.3104 14.7051 64.5781 14.7051C64.7656 14.7051 64.8995 14.2236 65.5421 13.9025C65.8634 13.742 67.3629 12.8592 67.3629 12.8592C67.3629 12.8592 67.4165 12.6184 67.4968 12.4846C67.4968 12.4846 67.6842 12.0834 68.0591 11.5215C68.0859 11.4948 68.1394 11.4145 68.2198 11.2808C68.434 10.9865 68.7285 10.6387 69.0766 10.3177C69.4783 9.88963 70.0406 9.35458 70.7903 8.68576C70.7903 8.68576 74.9675 5.98374 75.1549 5.87673C75.1817 5.84998 75.2353 5.84998 75.262 5.84998C75.6101 5.84998 76.1189 6.46529 75.503 7.29462C74.9943 7.96344 74.4052 8.41823 73.95 8.76602C73.8161 8.87303 73.6287 8.98004 73.4948 9.03355C72.8521 9.24757 72.0221 9.75587 71.8882 9.86288C71.7543 9.96989 71.7543 10.1572 71.9149 10.0769C72.4773 9.83613 73.3609 9.62211 73.5215 9.5686C74.4855 9.35458 81.4742 7.66916 81.5813 7.64241C81.6081 7.64241 81.6884 7.61565 81.742 7.61565C81.983 7.61565 82.3846 7.69591 82.4917 8.20421C82.4917 8.23096 82.4917 8.23097 82.4917 8.25772L76.0921 10.1572C75.9314 10.2107 75.8511 10.3712 75.9047 10.5317C75.9315 10.6387 76.0386 10.719 76.1457 10.7457C76.1992 10.7457 76.2528 10.7457 76.2795 10.7457L81.983 9.0603C82.0901 9.03355 82.3043 8.98004 82.7327 8.84628L82.7863 8.81952C82.9202 8.79277 83.0273 8.76602 83.1344 8.76602C83.7235 8.76602 84.0716 9.24757 84.1787 9.54185C84.3393 9.64886 84.2858 9.72911 84.1787 9.80937Z"></path>
<path fill="#1C1C1C" d="M24.9772 15.3577C24.5962 15.6238 24.5145 15.8101 24.4601 15.9431C24.4057 16.0761 24.4057 16.2092 24.4329 16.2624C24.4601 16.3156 24.4329 16.3954 24.3785 16.422C24.3241 16.4487 24.2696 16.422 24.2424 16.422C24.2152 16.3954 24.188 16.3688 24.1608 16.3422C24.0519 16.1027 24.1608 15.5706 24.4329 15.3311C24.5418 15.2247 24.6778 15.1448 24.8139 15.0916C24.8683 15.065 25.0044 15.0118 25.086 15.1182C25.1404 15.2247 25.0588 15.3045 24.9772 15.3577ZM33.9027 13.6548C33.821 13.6814 33.7938 13.5749 33.7394 13.4419C33.4945 13.7612 32.9502 14.2668 32.8686 14.3732C32.7598 14.5328 32.6509 14.6925 32.5421 14.8521C32.3788 15.1448 32.2427 15.4109 32.025 15.677C31.7529 16.0229 31.4264 16.3422 31.0454 16.5551C30.3107 16.9808 29.4127 17.1937 28.5691 17.0606C28.1337 16.9808 27.6983 16.8212 27.2902 16.6349C26.9636 16.4753 26.6099 16.289 26.2561 16.2624C25.8479 16.2624 25.4125 16.289 25.0044 16.2358C24.8683 16.2092 24.7322 16.156 24.705 16.0229C24.6506 15.8367 24.7867 15.6238 24.9772 15.6238C25.0316 15.6238 25.1132 15.6504 25.1676 15.6504C25.3037 15.6504 25.4398 15.677 25.5758 15.677C27.0453 15.7302 28.5691 15.4908 29.9569 15.065C30.8277 14.7989 31.6713 14.453 32.406 13.9475C32.7053 13.7346 33.0047 13.4951 33.2496 13.229C33.2768 13.1758 33.3312 13.1226 33.3584 13.096C33.3312 13.0694 33.304 13.0694 33.2768 13.0694C33.1951 13.0428 33.1951 12.9097 33.3312 12.8831C33.4673 12.8565 33.6577 12.9097 33.7394 12.9896C33.821 13.0694 33.8754 13.1758 33.9027 13.3355C34.0115 13.4419 34.0115 13.6282 33.9027 13.6548ZM31.9434 14.8788C30.6372 15.5706 29.1406 15.9431 27.6711 16.1294C28.0793 16.3156 28.4875 16.4487 28.9229 16.5019C29.3311 16.5285 29.712 16.4753 30.093 16.3688C30.474 16.2624 30.8549 16.0761 31.1815 15.8367C31.508 15.544 31.7529 15.2247 31.9434 14.8788ZM23.6438 11.7922C23.3989 11.3665 23.2628 10.8875 23.1812 10.4085C23.0995 9.9296 23.0723 9.42404 23.1812 8.94509C23.2628 8.46614 23.4805 8.0404 23.8887 7.77432C24.2152 7.53484 24.6234 7.4018 25.0316 7.4018C25.1404 7.4018 25.2493 7.4018 25.3581 7.42841C26.3922 7.64128 26.882 8.46614 27.2902 9.63691C27.7528 10.9141 27.4262 12.5106 26.5827 12.8565C26.365 12.9363 26.0384 13.0428 26.0384 13.0428C25.8207 13.096 25.603 13.1492 25.3853 13.1492C25.1404 13.1492 24.8955 13.096 24.6778 12.963C24.2152 12.6703 23.8887 12.2179 23.6438 11.7922ZM23.9975 11.6059C24.2424 12.0583 24.5418 12.4042 24.8683 12.5904C25.0316 12.6703 25.1948 12.7235 25.3853 12.7235C25.5486 12.7235 25.7119 12.6969 25.9296 12.6437C26.0112 12.617 26.2833 12.5372 26.4194 12.484C26.6915 12.3776 26.9092 12.0051 27.018 11.5261C27.0453 11.3398 27.0725 11.1536 27.0725 10.9673C27.018 11.5793 26.6915 12.0583 26.2561 12.1381C25.603 12.2977 24.8683 11.6059 24.6234 10.5948C24.569 10.3287 24.5418 10.0626 24.5418 9.82317C24.6778 9.98282 24.8411 10.0626 25.0316 10.0094C25.2765 9.95621 25.4125 9.63691 25.3309 9.31761C25.2493 9.07813 25.0588 8.89187 24.8683 8.86526C25.0044 8.679 25.1948 8.54596 25.3853 8.49275C25.8751 8.38631 26.3922 8.70561 26.7187 9.291C26.7187 9.26439 26.6915 9.23778 26.6915 9.21117C26.365 8.57257 25.7935 7.90736 24.705 8.20005C23.2628 8.57257 23.5893 10.4085 23.7526 10.9673C23.807 11.1802 23.8887 11.3931 23.9975 11.6059ZM30.7461 11.3398C30.7189 11.3132 30.7461 11.3398 30.7461 11.3398C30.7189 11.3132 30.7189 11.3398 30.7461 11.3398ZM29.0317 9.6103C28.9229 9.18456 28.7596 8.54596 28.814 7.93397C28.8685 7.05589 29.3311 6.55033 29.8753 6.36408C30.5556 6.15121 31.2903 6.49712 31.6985 7.00268C31.9434 7.29537 32.1611 7.7211 32.3516 8.14684C32.406 8.27988 32.4876 8.43953 32.5421 8.59918C32.7053 9.07813 32.787 9.55708 32.7598 10.0094C32.7325 10.2755 32.7053 10.5416 32.5965 10.7545C32.5148 10.9939 32.3516 11.3132 32.0795 11.4729C31.889 11.5793 31.6713 11.6059 31.508 11.6591C31.3447 11.6858 31.1815 11.7124 30.991 11.7124C30.8821 11.7124 30.7733 11.7124 30.6644 11.6858C30.6372 11.6858 30.6372 11.6858 30.61 11.6858H30.5828C30.1202 11.5527 29.8481 11.2068 29.6032 10.9141C29.4127 10.648 29.2766 10.3553 29.1678 10.0892C29.1678 10.0892 29.1406 10.036 29.1134 9.9296C29.0861 9.87638 29.0589 9.79656 29.0589 9.74334C29.0589 9.66351 29.0589 9.63691 29.0317 9.6103ZM29.2766 8.43953C29.2766 8.81205 29.3311 9.23778 29.4399 9.6103C29.5487 9.98282 29.712 10.3553 29.9297 10.6746C30.1202 10.9407 30.3651 11.2068 30.7189 11.3132C30.7189 11.3132 30.7189 11.3132 30.7461 11.3132C30.7733 11.3132 30.7733 11.3132 30.7733 11.3132C30.8549 11.3398 30.9366 11.3398 31.0182 11.3398C31.1543 11.3398 31.2903 11.3132 31.4536 11.2866C31.6169 11.26 31.7801 11.2068 31.9434 11.127C32.1339 11.0205 32.2155 10.8077 32.2972 10.6214C32.3788 10.4085 32.406 10.1957 32.4332 9.98282C32.4604 9.6103 32.406 9.21117 32.2699 8.83865C32.2699 8.86526 32.2699 8.86526 32.2699 8.89187C32.4876 9.87638 32.1883 10.7545 31.5896 10.8875C30.991 11.0205 30.3379 10.3287 30.1202 9.37082C30.0658 9.10474 30.0386 8.86526 30.0386 8.62579C30.1474 8.78544 30.3379 8.89187 30.5284 8.83865C30.7733 8.78544 30.9093 8.46614 30.8277 8.17344C30.7461 7.90736 30.5284 7.7211 30.3107 7.7211C30.4195 7.56145 30.5828 7.42841 30.7733 7.4018C31.1543 7.32198 31.5624 7.56145 31.8618 8.0404C31.7801 7.90736 31.6985 7.77432 31.6169 7.64128C31.3992 7.34858 31.0726 7.05589 30.6917 6.97607C30.6372 6.97607 30.5556 6.94946 30.5012 6.94946C30.1474 6.94946 29.7937 7.10911 29.6032 7.37519C29.3311 7.66789 29.2766 8.06701 29.2766 8.43953Z"></path>
<path fill="#004F9E" d="M108.624 15.5573L104.501 26.7552H109.909L114.032 15.5573H108.624ZM193.036 15.5573L190.225 23.2374C190.252 22.4586 190.413 19.3974 190.52 17.6519C190.546 16.9269 190.413 16.3629 190.064 16.0138C189.636 15.5573 189.101 15.5573 189.074 15.5573H182.783L178.66 26.7552H183.211L186.129 18.8066L185.781 26.7552H193.438L197.561 15.5573H193.036ZM97.9152 15.5573L93.953 21.5725C93.953 21.5725 94.1939 18.4306 94.2742 17.6519C94.3278 17.088 94.2475 15.5305 92.8553 15.5305H86.5907L82.4678 26.7283H87.367L90.3387 18.6186L89.723 26.7283H94.0868L99.4412 18.7529L96.5231 26.7283H101.449L105.572 15.5305H97.9152V15.5573ZM139.251 15.5573L137.752 19.5853H135.021L136.494 15.5573H131.327L127.257 26.7552H132.398L133.79 22.9688H136.52L135.128 26.7552H140.269L144.391 15.5573H139.251ZM121.528 15.6379C118.262 16.3092 113.818 18.726 113.845 23.13C113.871 25.681 116.923 27.0774 120.457 26.9968C122.438 26.9431 124.312 26.594 124.527 26.5403L125.838 23.1568C124.125 23.4253 122.465 23.855 121.153 23.3179C118.824 22.3781 120.243 19.9344 121.903 19.1825C122.626 18.8603 123.616 18.5381 124.821 18.5649C125.303 18.5649 126.535 18.5918 126.99 19.6659L128.623 15.7185C125.812 15.0203 123.001 15.3425 121.528 15.6379ZM151.486 18.4843H157.67L158.768 15.5573H147.497L143.374 26.7552H154.779L155.877 23.7207H149.585L150.04 22.4855H155.93L156.948 19.7196H151.058L151.486 18.4843ZM174.296 15.5573L170.173 26.7552H175.581L179.704 15.5573H174.296ZM166.933 15.5573H161.659L157.536 26.7552H168.111L169.477 23.0225H164.176L166.933 15.5573Z"></path>
<path fill="#004F9E" d="M190.764 33.3002H1.04126L0 36.0001H189.75L190.764 33.3002Z"></path>
</g>
<defs>
<clipPath id="clip0_9075_41995">
<rect fill="white" height="36" width="197.561"></rect>
</clipPath>
</defs>
</svg>