<svg width="420" height="60" viewBox="0 0 420 60" fill="none" xmlns="http://www.w3.org/2000/svg">
<path d="M1.08022 60C1.54508 60 1.97673 59.5351 2.37518 58.6054C2.84004 57.6757 3.07247 56.1483 3.07247 54.0233V6.2094C3.07247 4.08434 2.84004 2.59015 2.37518 1.72685C1.91033 0.797133 1.44547 0.299072 0.980611 0.232665H33.6534C39.4973 0.232665 44.1459 0.963155 47.5991 2.42414C51.1188 3.88511 53.6423 6.04338 55.1697 8.89893C56.7635 11.6881 57.5604 15.1745 57.5604 19.3582C57.5604 22.3466 56.9959 25.0029 55.8669 27.3272C54.8044 29.6515 53.3102 31.5441 51.3844 33.0051C49.4586 34.4661 47.3003 35.5286 44.9096 36.1927V36.4915C47.5659 37.554 50.3551 39.6459 53.277 42.7671C56.199 45.8219 58.8221 49.2419 61.1464 53.0271C62.6738 55.4842 64.0684 57.2441 65.3301 58.3066C66.5919 59.3691 67.5548 59.9336 68.2189 60H43.1166C43.9135 59.9336 44.5444 59.5019 45.0092 58.705C45.5405 57.8417 45.3745 56.4472 44.5112 54.5213C43.1166 51.3337 41.4232 48.5778 39.4309 46.2535C37.4387 43.9292 35.1144 42.1694 32.4581 40.9741C29.8682 39.7123 26.8798 39.0814 23.493 39.0814H22.3972C20.3386 39.0814 19.1432 39.2475 18.8112 39.5795C18.4792 39.9115 18.3131 40.7416 18.3131 42.0698V54.0233C18.3131 56.1483 18.5456 57.6757 19.0104 58.6054C19.4753 59.5351 19.9401 60 20.405 60H1.08022ZM22.3972 29.0206H30.5654C34.7492 29.0206 37.7707 28.2901 39.6302 26.8291C41.4896 25.3017 42.4193 22.8114 42.4193 19.3582C42.4193 17.8308 42.0873 16.4695 41.4232 15.2741C40.7591 14.0788 39.6302 13.1491 38.0364 12.485C36.509 11.8209 34.3507 11.4888 31.5616 11.4888H22.3972C20.3386 11.4888 19.1432 11.5885 18.8112 11.7877C18.4792 11.9869 18.3131 12.7506 18.3131 14.0788V26.3311C18.3131 27.6592 18.4792 28.4561 18.8112 28.7218C19.1432 28.921 20.3386 29.0206 22.3972 29.0206ZM73.1606 60C73.6254 60 74.0903 59.5351 74.5551 58.6054C75.02 57.6757 75.2524 56.1483 75.2524 54.0233V6.2094C75.2524 4.08434 75.02 2.59015 74.5551 1.72685C74.0903 0.797133 73.6254 0.299072 73.1606 0.232665H131.334V3.22103L133.326 14.776C131.666 14.0456 128.744 13.2819 124.56 12.485C120.377 11.6217 115.33 11.19 109.419 11.19H94.6768C92.6846 11.19 91.4892 11.356 91.0908 11.6881C90.7587 11.9537 90.5927 12.7838 90.5927 14.1784V21.5497C90.5927 23.0107 90.7587 23.874 91.0908 24.1396C91.4892 24.4052 92.6514 24.538 94.5772 24.538H108.921C112.773 24.538 115.861 24.3388 118.185 23.9404C120.576 23.4755 122.137 23.0107 122.867 22.5458C122.601 23.8076 122.303 25.2685 121.971 26.9287C121.639 28.5889 121.373 30.1827 121.174 31.7101C120.974 33.2375 120.875 34.4993 120.875 35.4954H94.5772C92.6514 35.4954 91.4892 35.6282 91.0908 35.8938C90.7587 36.0931 90.5927 36.9564 90.5927 38.4838V45.8551C90.5927 47.3825 90.7587 48.279 91.0908 48.5446C91.4228 48.8102 92.5849 48.943 94.5772 48.943H121.472C125.324 48.943 128.412 48.5114 130.736 47.6481C133.127 46.7184 134.688 45.8219 135.418 44.9586L133.426 56.912V60H73.1606Z" fill="#1A8F4A"></path>
<path d="M142.422 60C142.887 60 143.352 59.5351 143.817 58.6054C144.282 57.6757 144.514 56.1483 144.514 54.0233V6.2094C144.514 4.08434 144.282 2.59015 143.817 1.72685C143.352 0.797133 142.887 0.299072 142.422 0.232665H161.946C161.481 0.232665 161.016 0.697522 160.552 1.62724C160.087 2.55695 159.854 4.11754 159.854 6.30901V45.8551C159.854 47.316 160.02 48.2126 160.352 48.5446C160.751 48.8102 161.946 48.943 163.938 48.943H187.945C191.797 48.943 194.885 48.5114 197.209 47.6481C199.6 46.7184 201.16 45.8219 201.891 44.9586L198.902 56.912V60H142.422ZM202.71 60C203.042 60 203.54 59.5351 204.204 58.6054C204.935 57.6757 205.765 56.1151 206.695 53.9237C207.159 52.9275 207.89 51.2341 208.886 48.8434C209.949 46.3863 211.144 43.564 212.472 40.3764C213.867 37.1224 215.294 33.7356 216.755 30.2159C218.283 26.6963 219.711 23.3095 221.039 20.0555C222.433 16.8015 223.629 13.9459 224.625 11.4888C225.687 9.03174 226.418 7.27193 226.816 6.2094C227.68 4.08434 228.144 2.55695 228.211 1.62724C228.277 0.697522 228.144 0.232665 227.812 0.232665H249.528C249.262 0.232665 249.163 0.697522 249.229 1.62724C249.295 2.49054 249.76 4.01793 250.624 6.2094C251.022 7.27193 251.719 9.03174 252.715 11.4888C253.712 13.8795 254.874 16.7019 256.202 19.9559C257.53 23.1435 258.925 26.4971 260.386 30.0167C261.847 33.5364 263.241 36.9232 264.569 40.1772C265.897 43.3648 267.093 46.1871 268.155 48.6442C269.218 51.1013 269.982 52.8611 270.446 53.9237C271.443 56.1151 272.405 57.6757 273.335 58.6054C274.265 59.5351 274.962 60 275.427 60H252.815C253.346 59.9336 253.778 59.4355 254.11 58.5058C254.508 57.5097 254.508 55.9823 254.11 53.9237C254.044 53.4588 253.977 53.0936 253.911 52.8279C253.844 52.4959 253.712 52.031 253.512 51.4333C253.247 50.4372 252.948 49.7399 252.616 49.3415C252.284 48.8766 251.719 48.611 250.922 48.5446C250.192 48.4782 248.963 48.445 247.237 48.445H230.103C228.31 48.445 226.982 48.5114 226.119 48.6442C225.256 48.7106 224.658 48.943 224.326 49.3415C223.994 49.7399 223.728 50.404 223.529 51.3337C223.463 51.6658 223.363 52.0974 223.23 52.6287C223.164 53.16 223.097 53.5916 223.031 53.9237C222.566 56.0487 222.433 57.5761 222.633 58.5058C222.898 59.4355 223.23 59.9336 223.629 60H202.71ZM232.693 37.4876H244.348C246.274 37.4876 247.336 37.3216 247.536 36.9896C247.735 36.6575 247.635 35.927 247.237 34.7981C246.373 32.673 245.51 30.5148 244.647 28.3233C243.784 26.0654 242.953 23.874 242.157 21.7489C241.426 19.6238 240.762 17.6648 240.164 15.8718C239.633 14.0124 239.168 12.4518 238.77 11.19H238.571C237.641 13.6471 236.678 16.237 235.682 18.9598C234.686 21.6825 233.756 24.206 232.893 26.5303C232.029 28.8546 231.332 30.7804 230.801 32.3078C230.27 33.7688 230.004 34.4993 230.004 34.4993C229.539 35.5618 229.373 36.3255 229.506 36.7904C229.639 37.2552 230.701 37.4876 232.693 37.4876ZM280.654 60C281.118 60 281.583 59.5351 282.048 58.6054C282.513 57.6757 282.745 56.1483 282.745 54.0233V6.2094C282.745 4.08434 282.513 2.59015 282.048 1.72685C281.583 0.797133 281.118 0.299072 280.654 0.232665H300.178C299.713 0.232665 299.58 0.697522 299.779 1.62724C300.045 2.55695 301.14 4.15074 303.066 6.40862C303.598 6.93989 304.461 7.93601 305.656 9.39699C306.918 10.7916 308.412 12.485 310.139 14.4772C311.865 16.4695 313.692 18.6277 315.617 20.952C317.61 23.2763 319.602 25.6006 321.594 27.9249C323.653 30.2491 325.612 32.4738 327.471 34.5989H327.571V6.2094C327.571 4.08434 327.339 2.59015 326.874 1.72685C326.409 0.797133 325.944 0.299072 325.479 0.232665H345.003C344.538 0.232665 344.073 0.697522 343.609 1.62724C343.144 2.55695 342.911 4.11754 342.911 6.30901V54.0233C342.911 56.1483 343.144 57.6757 343.609 58.6054C344.073 59.5351 344.538 60 345.003 60H327.87C328.268 60 328.301 59.5351 327.969 58.6054C327.704 57.6757 326.674 56.0819 324.881 53.824C323.952 52.6287 322.723 51.1013 321.196 49.2419C319.668 47.316 317.942 45.191 316.016 42.8667C314.156 40.5424 312.197 38.1185 310.139 35.595C308.08 33.0715 306.021 30.6144 303.963 28.2237C301.971 25.7666 300.111 23.5087 298.385 21.4501H298.086V54.0233C298.086 56.1483 298.318 57.6757 298.783 58.6054C299.248 59.5351 299.713 60 300.178 60H280.654ZM354.974 60C355.439 60 355.903 59.5351 356.368 58.6054C356.833 57.6757 357.066 56.1483 357.066 54.0233V6.2094C357.066 4.08434 356.833 2.59015 356.368 1.72685C355.903 0.797133 355.439 0.299072 354.974 0.232665H386.252C392.096 0.232665 397.01 0.797135 400.995 1.92607C404.979 3.05501 408.167 4.6156 410.557 6.60785C413.014 8.60009 414.874 10.8912 416.136 13.4811C417.397 16.0046 418.227 18.6941 418.626 21.5497C419.091 24.4052 419.323 27.294 419.323 30.2159C419.323 32.8723 419.091 35.6282 418.626 38.4838C418.227 41.2729 417.364 43.9624 416.036 46.5523C414.774 49.0759 412.915 51.3669 410.458 53.4256C408.067 55.4178 404.879 57.0116 400.895 58.207C396.977 59.4023 392.096 60 386.252 60H354.974ZM376.39 48.943H380.474C386.185 48.943 390.768 48.4782 394.221 47.5485C397.674 46.5524 400.198 44.7593 401.791 42.1694C403.385 39.5795 404.182 35.8274 404.182 30.9132V29.1202C404.182 23.9404 403.452 20.1219 401.991 17.6648C400.53 15.1413 398.073 13.4811 394.619 12.6842C391.166 11.8873 386.451 11.4888 380.474 11.4888H376.39C374.464 11.4888 373.302 11.6217 372.904 11.8873C372.572 12.0865 372.406 12.8834 372.406 14.278V45.9547C372.406 47.4157 372.572 48.279 372.904 48.5446C373.302 48.8102 374.464 48.943 376.39 48.943Z" fill="#062613"></path>
</svg>
